<svg xmlns="http://www.w3.org/2000/svg" viewBox="0 0 26.392 26.392">
  <defs />
  <path fill="#250f80"
    d="M13.196 26.392c7.288 0 13.196-5.908 13.196-13.196C26.392 5.908 20.484 0 13.196 0 5.908 0 0 5.908 0 13.196c0 7.288 5.908 13.196 13.196 13.196z"
    class="circulo" />
  <g class="balon__svg" fill="#f2b924" fill-rule="evenodd" paint-order="stroke fill markers">
    <path style="font-variation-settings:normal"
      d="M15.083 5.255l6.053 6.053a9.811 6.064-45 00-1.003-5.05 9.811 6.064-45 00-5.05-1.003zM8.908 8.908a9.811 6.064-45 00-3.016 4.307l7.284 7.284a9.811 6.064-45 004.307-3.016 9.811 6.064-45 003.016-4.307l-7.284-7.284a9.811 6.064-45 00-4.307 3.016zm2.207 4.923a.319.319 0 01.251-.089.424.424 0 01.267.127l.204.203.424-.423-.203-.204a.424.424 0 01-.127-.267.319.319 0 01.09-.253.319.319 0 01.251-.088.424.424 0 01.267.126l.204.204.424-.424-.204-.204a.424.424 0 01-.126-.267.319.319 0 01.089-.251.319.319 0 01.252-.09.424.424 0 01.267.126l.204.204.423-.424-.203-.204a.424.424 0 01-.126-.266.319.319 0 01.089-.253.319.319 0 01.252-.088.424.424 0 01.267.126l.203.204.424-.425a.34.34 0 01.482 0 .34.34 0 010 .482l-.424.424.204.204c.077.077.12.173.126.267a.319.319 0 01-.089.252.319.319 0 01-.252.089.424.424 0 01-.267-.126l-.204-.204-.423.424.203.204c.077.077.12.173.127.267a.319.319 0 01-.09.252.319.319 0 01-.252.089.424.424 0 01-.267-.126l-.203-.204-.424.424.204.204c.077.077.12.173.126.266a.319.319 0 01-.09.253.319.319 0 01-.251.088.424.424 0 01-.267-.126l-.204-.204-.424.425.204.203c.077.077.12.173.126.267a.319.319 0 01-.09.252.319.319 0 01-.251.09.424.424 0 01-.267-.127l-.204-.204-.424.424a.34.34 0 01-.482 0 .34.34 0 010-.482l.425-.423-.204-.204a.424.424 0 01-.126-.268.319.319 0 01.089-.251zM5.255 15.083a9.811 6.064-45 001.003 5.05 9.811 6.064-45 005.05 1.003z" />
  </g>
</svg>