<svg viewBox="0 0 1920 1080" fill="none" xmlns="http://www.w3.org/2000/svg">
  <g id="especialidades" clip-path="url(#clip0)">
    <path id="Piso" d="M1920 847H0V1080H1920V847Z" fill="#000955" />
    <path id="Fondo" d="M1920 0H0V847H1920V0Z" fill="#0012A6" />
    <g id="Llaves">
      <path id="Vector"
        d="M977.019 463.302C1001.6 463.302 1021.52 443.379 1021.52 418.802C1021.52 394.225 1001.6 374.302 977.019 374.302C952.442 374.302 932.519 394.225 932.519 418.802C932.519 443.379 952.442 463.302 977.019 463.302Z"
        fill="#BFC9FF" />
      <g id="Group">
        <path id="Vector_2" d="M977.019 418.802C1102.01 433.969 978.78 186.191 1068.65 185.802H1255.02" stroke="#BFC9FF"
          stroke-width="25.0016" stroke-linecap="round" stroke-linejoin="round" />
        <g id="Vector_3">
          <path d="M977.019 418.802H1426.82Z" fill="#BFC9FF" />
          <path d="M977.019 418.802H1426.82" stroke="#BFC9FF" stroke-width="28.3616" stroke-linecap="round"
            stroke-linejoin="round" />
        </g>
        <path id="Vector_4" d="M977.019 418.802C1102.01 403.638 978.78 651.413 1068.64 651.802H1255.02" stroke="#BFC9FF"
          stroke-width="25.0016" stroke-linecap="round" stroke-linejoin="round" />
        <g id="Group_2">
          <path id="Vector_5" d="M977.019 418.802C852.03 433.969 975.258 186.191 885.396 185.802H699.02"
            stroke="#BFC9FF" stroke-width="25.0016" stroke-linecap="round" stroke-linejoin="round" />
          <g id="Vector_6">
            <path d="M977.019 418.802H527.218Z" fill="#BFC9FF" />
            <path d="M977.019 418.802H527.218" stroke="#BFC9FF" stroke-width="28.3616" stroke-linecap="round"
              stroke-linejoin="round" />
          </g>
          <path id="Vector_7" d="M977.019 418.802C852.03 403.638 975.258 651.413 885.396 651.802H699.02"
            stroke="#BFC9FF" stroke-width="25.0016" stroke-linecap="round" stroke-linejoin="round" />
        </g>
      </g>
    </g>
    <g id="Corazon">
      <path id="Vector_8"
        d="M1388.37 140.479L1354.81 174.042C1339.81 189.039 1339.81 213.354 1354.81 228.352C1369.81 243.349 1394.12 243.349 1409.12 228.352L1442.68 194.79C1457.68 179.792 1457.68 155.477 1442.68 140.479C1427.68 125.482 1403.37 125.482 1388.37 140.479Z"
        fill="#EBB204" />
      <path id="Vector_9"
        d="M1409.12 174.041L1375.56 140.479C1360.56 125.482 1336.24 125.482 1321.25 140.479C1306.25 155.477 1306.25 179.792 1321.25 194.79L1354.81 228.352C1369.81 243.349 1394.12 243.349 1409.12 228.352C1424.12 213.354 1424.12 189.039 1409.12 174.041Z"
        fill="#EBB204" />
    </g>
    <g id="Deporte">
      <path id="Vector_10" fill-rule="evenodd" clip-rule="evenodd"
        d="M1383.67 593.529L1428.09 637.95C1431.7 622.542 1429.05 609.215 1420.72 600.888C1412.4 592.564 1399.07 589.918 1383.67 593.529V593.529Z"
        fill="#EBB204" />
      <path id="Vector_11" fill-rule="evenodd" clip-rule="evenodd"
        d="M1338.35 620.334C1328.85 629.831 1321.19 640.781 1316.22 651.946L1369.67 705.4C1380.83 700.43 1391.78 692.764 1401.28 683.267C1410.78 673.771 1418.44 662.822 1423.41 651.659L1369.96 598.205C1358.79 603.173 1347.85 610.838 1338.35 620.334V620.334ZM1354.54 656.466C1354.78 656.23 1355.07 656.049 1355.39 655.936C1355.71 655.823 1356.05 655.781 1356.39 655.812C1357.13 655.877 1357.83 656.207 1358.35 656.742L1359.84 658.235L1362.95 655.124L1361.46 653.628C1360.93 653.108 1360.6 652.413 1360.53 651.67C1360.5 651.332 1360.54 650.991 1360.66 650.672C1360.77 650.352 1360.95 650.06 1361.19 649.818C1361.43 649.582 1361.72 649.402 1362.04 649.29C1362.36 649.178 1362.7 649.136 1363.04 649.168C1363.78 649.232 1364.47 649.561 1365 650.094L1366.49 651.591L1369.6 648.48L1368.11 646.983C1367.57 646.462 1367.24 645.766 1367.18 645.022C1367.15 644.685 1367.19 644.346 1367.3 644.028C1367.42 643.71 1367.6 643.419 1367.83 643.177C1368.08 642.94 1368.37 642.759 1368.69 642.645C1369 642.532 1369.34 642.489 1369.68 642.52C1370.42 642.584 1371.12 642.912 1371.64 643.446L1373.14 644.942L1376.25 641.832L1374.75 640.335C1374.22 639.815 1373.89 639.12 1373.83 638.377C1373.8 638.04 1373.84 637.699 1373.95 637.379C1374.06 637.06 1374.25 636.768 1374.48 636.525C1374.72 636.29 1375.02 636.11 1375.33 635.998C1375.65 635.885 1375.99 635.844 1376.33 635.875C1377.07 635.939 1377.77 636.268 1378.29 636.801L1379.78 638.298L1382.89 635.184C1383.13 634.951 1383.4 634.766 1383.71 634.639C1384.01 634.513 1384.34 634.448 1384.66 634.448C1384.99 634.448 1385.32 634.513 1385.62 634.639C1385.93 634.766 1386.2 634.951 1386.43 635.184C1386.67 635.415 1386.85 635.691 1386.98 635.995C1387.1 636.298 1387.17 636.624 1387.17 636.952C1387.17 637.281 1387.1 637.607 1386.98 637.91C1386.85 638.214 1386.67 638.489 1386.43 638.721L1383.32 641.832L1384.81 643.329C1385.38 643.895 1385.69 644.598 1385.74 645.286C1385.77 645.624 1385.73 645.964 1385.62 646.284C1385.5 646.604 1385.32 646.895 1385.09 647.138C1384.84 647.374 1384.55 647.554 1384.23 647.666C1383.92 647.778 1383.58 647.82 1383.24 647.788C1382.5 647.724 1381.8 647.396 1381.28 646.862L1379.78 645.366L1376.67 648.48L1378.17 649.973C1378.73 650.54 1379.05 651.247 1379.1 651.934C1379.13 652.272 1379.08 652.612 1378.97 652.931C1378.86 653.25 1378.68 653.541 1378.44 653.783C1378.2 654.019 1377.91 654.2 1377.59 654.313C1377.27 654.425 1376.93 654.468 1376.59 654.437C1375.85 654.372 1375.15 654.044 1374.63 653.511L1373.14 652.014L1370.03 655.124L1371.52 656.621C1372.09 657.188 1372.4 657.891 1372.45 658.579C1372.48 658.917 1372.44 659.257 1372.33 659.577C1372.21 659.897 1372.03 660.188 1371.79 660.431C1371.55 660.666 1371.26 660.846 1370.94 660.959C1370.62 661.071 1370.28 661.113 1369.95 661.081C1369.2 661.017 1368.51 660.688 1367.99 660.155L1366.49 658.658L1363.38 661.773L1364.87 663.266C1365.44 663.832 1365.75 664.539 1365.8 665.227C1365.83 665.564 1365.79 665.904 1365.68 666.223C1365.56 666.543 1365.38 666.833 1365.15 667.075C1364.9 667.311 1364.61 667.492 1364.29 667.605C1363.97 667.718 1363.64 667.76 1363.3 667.729C1362.56 667.665 1361.86 667.336 1361.34 666.803L1359.84 665.306L1356.73 668.417C1356.5 668.65 1356.23 668.835 1355.92 668.961C1355.62 669.088 1355.29 669.153 1354.96 669.153C1354.64 669.153 1354.31 669.088 1354.01 668.961C1353.7 668.835 1353.43 668.65 1353.2 668.417C1352.96 668.185 1352.78 667.91 1352.65 667.607C1352.53 667.303 1352.46 666.978 1352.46 666.65C1352.46 666.322 1352.53 665.997 1352.65 665.693C1352.78 665.39 1352.96 665.115 1353.2 664.883L1356.31 661.773L1354.81 660.276C1354.28 659.754 1353.95 659.058 1353.89 658.314C1353.86 657.978 1353.9 657.639 1354.01 657.321C1354.12 657.002 1354.31 656.712 1354.54 656.47V656.466Z"
        fill="#EBB204" />
      <path id="Vector_12" fill-rule="evenodd" clip-rule="evenodd"
        d="M1311.54 665.65C1307.93 681.059 1310.58 694.386 1318.9 702.712C1327.23 711.038 1340.56 713.686 1355.96 710.075L1311.54 665.65Z"
        fill="#EBB204" />
    </g>
    <path id="Diente"
      d="M1527.38 490.904C1509.05 490.904 1497 450.652 1490.71 424.46C1485.11 401.125 1473.74 369.43 1490.71 352.46C1503.68 339.496 1521.41 352.46 1536.77 352.46C1552.12 352.46 1569.86 339.496 1582.82 352.46C1599.79 369.43 1588.42 401.125 1582.82 424.46C1576.54 450.652 1564.49 490.904 1546.15 490.904C1527.82 490.904 1559.13 424.46 1536.77 424.46C1514.4 424.46 1545.71 490.904 1527.38 490.904H1527.38Z"
      fill="#EBB204" />
    <path id="Psicologia"
      d="M500.062 122.026C500.001 122.09 499.963 122.857 499.963 123.742V125.344L500.946 125.431C502.598 125.571 503.516 125.749 504.68 126.138C507.893 127.211 509.938 129.479 510.898 133.024L511.238 134.26L511.313 144.665C511.4 154.386 511.427 155.195 511.68 157.009C513.279 168.423 517.909 177.01 525.94 183.466C534.644 190.458 547.257 194.627 561.415 195.182L563.645 195.273L563.633 206.256C563.621 213.301 563.588 220.347 563.535 227.391L563.444 237.543L563.055 238.715C562.095 241.565 560.258 243.572 557.329 244.97C555.89 245.641 554.367 246.117 552.801 246.384C550.806 246.683 548.789 246.805 546.773 246.75L545.476 246.66L545.514 248.149L545.552 249.638L546.875 249.611C563.604 249.296 580.338 249.296 597.067 249.611L598.39 249.638L598.428 248.149L598.465 246.66L597.169 246.75C595.14 246.807 593.109 246.68 591.103 246.372C589.44 246.07 587.924 245.601 586.613 244.974C583.687 243.572 581.896 241.629 580.898 238.741L580.482 237.543L580.407 226.949C580.358 221.125 580.32 211.616 580.309 205.814L580.293 195.269L582.539 195.182C595.098 194.691 606.55 191.327 615.039 185.65C618.266 183.481 621.732 180.329 623.917 177.577C628.479 171.817 631.079 165.396 632.277 156.96C632.515 155.206 632.542 154.314 632.629 144.665L632.704 134.26L633.044 133.024C634.091 129.154 636.438 126.807 640.259 125.824C640.891 125.658 643.185 125.371 643.805 125.371C643.956 125.371 643.979 125.08 643.956 123.693L643.918 122.03L641.771 122.041C634.031 122.064 627.016 124.777 622.227 129.581C619.476 132.34 617.673 135.394 616.297 139.559C615.239 142.76 614.774 145.825 614.596 150.603C614.532 152.379 614.381 154.651 614.279 155.648C613.323 164.338 610.662 171.764 606.486 177.328C605.101 179.082 603.552 180.699 601.859 182.158C598.001 185.272 593.182 187.253 587.671 187.982C585.982 188.209 581.48 188.387 580.762 188.247L580.293 188.16V166.065C580.309 142.231 580.384 137.73 580.785 135.938C581.692 131.951 584.243 129.116 588.087 127.816C590.767 126.933 593.6 126.611 596.409 126.871C597.43 126.947 598.39 127.045 598.556 127.083C598.832 127.158 598.832 127.158 598.832 125.507V123.855H545.11V125.507C545.11 127.158 545.11 127.158 545.401 127.083C545.552 127.045 546.508 126.947 547.533 126.871C550.342 126.611 553.175 126.933 555.855 127.816C559.51 129.052 562.095 131.788 563.006 135.356C563.573 137.548 563.558 137.034 563.611 163.166L563.675 188.16L563.195 188.247C562.462 188.387 557.972 188.209 556.271 187.982C550.76 187.253 545.941 185.272 542.082 182.158C540.39 180.699 538.841 179.082 537.456 177.328C534.894 173.923 532.853 169.686 531.504 165.018C530.181 160.452 529.561 156.291 529.349 150.603C529.168 145.735 528.703 142.772 527.58 139.366C524.455 129.846 517.126 123.931 506.483 122.332C504.745 122.067 500.228 121.863 500.062 122.03V122.026Z"
      fill="#EBB204" />
    <g id="Pulmones">
      <path id="Vector_13"
        d="M368.666 366.066C354.833 372.038 342.814 384.824 337.138 399.111C329.038 419.501 322.001 449.624 337.138 465.199C348.287 476.67 373.285 476.67 384.431 465.199C399.568 449.624 384.431 421.141 384.431 399.111C384.431 388.097 392.001 373.856 384.431 366.066C380.716 362.245 373.512 363.976 368.67 366.066H368.666Z"
        fill="#EBB204" />
      <path id="Vector_14"
        d="M431.724 366.066C445.557 372.038 457.576 384.824 463.253 399.111C471.352 419.501 478.39 449.624 463.253 465.199C452.103 476.67 427.109 476.67 415.96 465.199C400.823 449.624 415.96 421.141 415.96 399.111C415.96 388.097 408.393 373.856 415.96 366.066C419.675 362.245 426.883 363.976 431.724 366.066Z"
        fill="#EBB204" />
      <g id="Group_3">
        <path id="Vector_15" d="M418.159 418.802L400.157 400.471V363.802" stroke="#EBB204" stroke-width="10.0006"
          stroke-linecap="round" stroke-linejoin="round" />
        <path id="Vector_16" d="M382.159 418.802L400.158 400.471V363.802" stroke="#EBB204" stroke-width="10.0006"
          stroke-linecap="round" stroke-linejoin="round" />
      </g>
    </g>
    <g id="Lazo">
      <path id="Vector_17" fill-rule="evenodd" clip-rule="evenodd"
        d="M534.701 615.545C534.799 611.369 546.909 577.47 589.841 578.6C632.772 579.662 643.049 611.724 642.943 615.9C642.848 620.073 607.34 603.727 589.33 603.727C571.325 603.659 534.603 619.722 534.701 615.545Z"
        fill="#a98203" />
      <path id="Vector_18" fill-rule="evenodd" clip-rule="evenodd"
        d="M620.561 586.458C624.635 589.572 653.117 606.558 640.199 627.364C627.281 648.242 571.019 707.83 556.067 725.031C549.351 715.688 547.317 714.981 533.888 699.201C548.844 681.222 601.542 627.364 615.987 608.75C630.331 590.139 615.889 584.829 620.561 586.458V586.458Z"
        fill="#EBB204" />
      <path id="Vector_19" fill-rule="evenodd" clip-rule="evenodd"
        d="M557.186 586.243C553.115 589.361 524.629 606.346 537.551 627.152C550.469 647.958 606.83 707.55 621.785 724.819C628.498 715.476 630.535 714.769 643.964 698.986C629.008 681.01 576.208 627.08 561.865 608.466C547.419 589.924 561.963 584.617 557.186 586.243V586.243Z"
        fill="#EBB204" />
    </g>
  </g>
  <defs>
    <clipPath id="clip0">
      <rect width="1920" height="1080" fill="white" />
    </clipPath>
  </defs>
</svg>