<svg xmlns="http://www.w3.org/2000/svg" fill="none" viewBox="0 0 100 100">
  <g id="hielo 1" clip-path="url(#clip0)">
    <g id="Group">
      <path class="circulo" fill="#250F80"
        d="M49.874 99.748c27.545 0 49.874-22.33 49.874-49.874C99.748 22.329 77.418 0 49.874 0 22.329 0 0 22.33 0 49.874c0 27.545 22.33 49.874 49.874 49.874z" />
      <g id="Frio">
        <g id="Vector">
          <path fill="#F2B924"
            d="M49.874 19.05v61.647V19.05zM38.3 24.172l11.574 10.29L38.3 24.172zm23.148 0l-11.574 10.29 11.574-10.29zM38.3 75.575l11.574-10.29L38.3 75.575zm23.148 0l-11.573-10.29 11.573 10.29zm18.453-41.113L19.848 65.285l60.053-30.823zm-10.777-6.351l-4.237 14.057 4.237-14.057zm11.574 17.823l-15.81-3.766 15.81 3.766zM19.05 53.813l15.811 3.766-15.811-3.766zm11.575 17.822l4.236-14.056-4.236 14.056zM19.848 34.462l60.053 30.823-60.053-30.823zm10.777-6.351l4.236 14.057-4.236-14.057zM19.05 45.934l15.811-3.766-15.811 3.766zm61.648 7.879l-15.81 3.766 15.81-3.766zM69.124 71.635l-4.237-14.056z" />
          <path stroke="#F2B924" stroke-linecap="round" stroke-linejoin="round" stroke-width="2.646"
            d="M69.124 71.635l-4.237-14.056M49.874 19.05v61.647V19.05zM38.3 24.172l11.574 10.29L38.3 24.172zm23.148 0l-11.574 10.29 11.574-10.29zM38.3 75.575l11.574-10.29L38.3 75.575zm23.148 0l-11.573-10.29 11.573 10.29zm18.453-41.113L19.848 65.285l60.053-30.823zm-10.777-6.351l-4.237 14.057 4.237-14.057zm11.574 17.823l-15.81-3.766 15.81 3.766zM19.05 53.813l15.811 3.766-15.811-3.766zm11.575 17.822l4.236-14.056-4.236 14.056zM19.848 34.462l60.053 30.823-60.053-30.823zm10.777-6.351l4.236 14.057-4.236-14.057zM19.05 45.934l15.811-3.766-15.811 3.766zm61.648 7.879l-15.81 3.766 15.81-3.766z" />
        </g>
      </g>
    </g>
  </g>
  <defs>
    <clipPath id="clip0">
      <path fill="#fff" d="M0 0h99.748v99.748H0z" />
    </clipPath>
  </defs>
</svg>