<svg xmlns="http://www.w3.org/2000/svg" viewBox="0 0 26.392 26.392">
  <defs />
  <path fill="#250f80"
    d="M13.196 26.392c7.288 0 13.196-5.908 13.196-13.196C26.392 5.908 20.484 0 13.196 0 5.908 0 0 5.908 0 13.196c0 7.288 5.908 13.196 13.196 13.196z"
    class="circulo" />
  <g class="lazo__svg" fill-rule="evenodd">
    <path fill="#a98203"
      d="M7.157 9.158c.01-.465 1.36-4.24 6.14-4.115 4.782.119 5.926 3.69 5.915 4.155-.01.464-3.965-1.356-5.971-1.356-2.005-.008-6.095 1.781-6.084 1.316z" />
    <path fill="#ebb204"
      d="M16.719 5.918c.454.347 3.626 2.239 2.187 4.556-1.439 2.325-7.705 8.962-9.37 10.877-.748-1.04-.974-1.119-2.47-2.876 1.666-2.003 7.535-8 9.144-10.074 1.597-2.073-.011-2.664.509-2.483z" />
    <path fill="#ebb204"
      d="M9.66 5.894c-.452.348-3.625 2.24-2.186 4.557s7.716 8.954 9.381 10.877c.748-1.04.975-1.12 2.47-2.877-1.665-2.002-7.546-8.008-9.143-10.081-1.609-2.066.01-2.657-.521-2.476z" />
  </g>
</svg>