<svg xmlns="http://www.w3.org/2000/svg" viewBox="0 0 26.391658 26.391659">
  <defs />
  <g transform="translate(-88.824381 -39.687498)">
    <circle cx="102.02021" cy="52.883327" r="13.195829" fill="#000955" fill-rule="evenodd"
      paint-order="stroke fill markers" style="font-variation-settings:normal" />
    <g fill="#ebb204">
      <path
        d="M102.02024 51.73197c2.05773 0 3.72594-1.66818 3.72594-3.725973 0-2.057824-1.66821-3.726005-3.72594-3.726005-2.057822 0-3.726003 1.668181-3.726003 3.726005 0 2.057793 1.668181 3.725973 3.726003 3.725973z" />
      <path fill-rule="evenodd"
        d="M107.64022 64.822782a6.0286635 9.6123121 0 00.008-.03359 6.0286635 9.6123121 0 00.032-.137459 6.0286635 9.6123121 0 00.031-.137976 6.0286635 9.6123121 0 00.03-.13901 6.0286635 9.6123121 0 00.0284-.140043 6.0286635 9.6123121 0 00.0269-.140043 6.0286635 9.6123121 0 00.0258-.141077 6.0286635 9.6123121 0 00.0243-.141593 6.0286635 9.6123121 0 00.0227-.142111 6.0286635 9.6123121 0 00.0217-.142627 6.0286635 9.6123121 0 00.0202-.143143 6.0286635 9.6123121 0 00.0191-.143661 6.0286635 9.6123121 0 00.017-.144177 6.0286635 9.6123121 0 00.016-.144694 6.0286635 9.6123121 0 00.015-.144694 6.0286635 9.6123121 0 00.0134-.145211 6.0286635 9.6123121 0 00.0119-.145727 6.0286635 9.6123121 0 00.0103-.145728 6.0286635 9.6123121 0 00.009-.146244 6.0286635 9.6123121 0 00.008-.146244 6.0286635 9.6123121 0 00.006-.146245 6.0286635 9.6123121 0 00.005-.146761 6.0286635 9.6123121 0 00.004-.146761 6.0286635 9.6123121 0 00.002-.146761 6.0286635 9.6123121 0 00.001-.146761 6.0286635 9.6123121 0 00-.00052-.126607 6.0286635 9.6123121 0 00-.002-.146761 6.0286635 9.6123121 0 00-.004-.146761 6.0286635 9.6123121 0 00-.005-.146762 6.0286635 9.6123121 0 00-.006-.146244 6.0286635 9.6123121 0 00-.007-.146244 6.0286635 9.6123121 0 00-.009-.146244 6.0286635 9.6123121 0 00-.0103-.145728 6.0286635 9.6123121 0 00-.0119-.145727 6.0286635 9.6123121 0 00-.0129-.145211 6.0286635 9.6123121 0 00-.015-.145211 6.0286635 9.6123121 0 00-.0155-.144177 6.0286635 9.6123121 0 00-.0176-.144177 6.0286635 9.6123121 0 00-.0186-.144178 6.0286635 9.6123121 0 00-.0202-.143143 6.0286635 9.6123121 0 00-.0212-.142627 6.0286635 9.6123121 0 00-.0227-.142111 6.0286635 9.6123121 0 00-.0243-.141593 6.0286635 9.6123121 0 00-.0253-.141077 6.0286635 9.6123121 0 00-.0269-.140559 6.0286635 9.6123121 0 00-.0284-.139527 6.0286635 9.6123121 0 00-.0295-.139009 6.0286635 9.6123121 0 00-.0305-.138493 6.0286635 9.6123121 0 00-.032-.13746 6.0286635 9.6123121 0 00-.0336-.136942 6.0286635 9.6123121 0 00-.0351-.135909 6.0286635 9.6123121 0 00-.0357-.134876 6.0286635 9.6123121 0 00-.0377-.134358 6.0286635 9.6123121 0 00-.0382-.133326 6.0286635 9.6123121 0 00-.0403-.132291 6.0286635 9.6123121 0 00-.0408-.131258 6.0286635 9.6123121 0 00-.0424-.130225 6.0286635 9.6123121 0 00-.0439-.129191 6.0286635 9.6123121 0 00-.045-.128158 6.0286635 9.6123121 0 00-.046-.127124 6.0286635 9.6123121 0 00-.0475-.125573 6.0286635 9.6123121 0 00-.0486-.125057 6.0286635 9.6123121 0 00-.0496-.123507 6.0286635 9.6123121 0 00-.0506-.121956 6.0286635 9.6123121 0 00-.0522-.12144 6.0286635 9.6123121 0 00-.0532-.119373 6.0286635 9.6123121 0 00-.0543-.118855 6.0286635 9.6123121 0 00-.0558-.116789 6.0286635 9.6123121 0 00-.0563-.115755 6.0286635 9.6123121 0 00-.0579-.114205 6.0286635 9.6123121 0 00-.0589-.113172 6.0286635 9.6123121 0 00-.0594-.111621 6.0286635 9.6123121 0 00-.061-.110071 6.0286635 9.6123121 0 00-.062-.10852 6.0286635 9.6123121 0 00-.063-.10697 6.0286635 9.6123121 0 00-.0641-.10542 6.0286635 9.6123121 0 00-.0651-.10387 6.0286635 9.6123121 0 00-.0661-.102319 6.0286635 9.6123121 0 00-.0667-.100769 6.0286635 9.6123121 0 00-.0682-.0987 6.0286635 9.6123121 0 00-.0687-.09767 6.0286635 9.6123121 0 00-.0698-.0956 6.0286635 9.6123121 0 00-.0708-.09405 6.0286635 9.6123121 0 00-.0718-.09198 6.0286635 9.6123121 0 00-.0724-.09095 6.0286635 9.6123121 0 00-.0734-.08837 6.0286635 9.6123121 0 00-.0739-.08682 6.0286635 9.6123121 0 00-.0755-.08527 6.0286635 9.6123121 0 00-.0755-.0832 6.0286635 9.6123121 0 00-.0765-.08165 6.0286635 9.6123121 0 00-.0775-.07958 6.0286635 9.6123121 0 00-.078-.07752 6.0286635 9.6123121 0 00-.0791-.07545 6.0286635 9.6123121 0 00-.0796-.0739 6.0286635 9.6123121 0 00-.0801-.07183 6.0286635 9.6123121 0 00-.0811-.07028 6.0286635 9.6123121 0 00-.0816-.0677 6.0286635 9.6123121 0 00-.0822-.06615 6.0286635 9.6123121 0 00-.0827-.06356 6.0286635 9.6123121 0 00-.0837-.06201 6.0286635 9.6123121 0 00-.0842-.05995 6.0286635 9.6123121 0 00-.0842-.05788 6.0286635 9.6123121 0 00-.0853-.05529 6.0286635 9.6123121 0 00-.0858-.05374 6.0286635 9.6123121 0 00-.0863-.05168 6.0286635 9.6123121 0 00-.0868-.04961 6.0286635 9.6123121 0 00-.0868-.04703 6.0286635 9.6123121 0 00-.0878-.04548 6.0286635 9.6123121 0 00-.0879-.04289 6.0286635 9.6123121 0 00-.0884-.04082 6.0286635 9.6123121 0 00-.0889-.03876 6.0286635 9.6123121 0 00-.0889-.03669 6.0286635 9.6123121 0 00-.0899-.03462 6.0286635 9.6123121 0 00-.0894-.03204 6.0286635 9.6123121 0 00-.0904-.02997 6.0286635 9.6123121 0 00-.0904-.02791 6.0286635 9.6123121 0 00-.0904-.02584 6.0286635 9.6123121 0 00-.091-.02325 6.0286635 9.6123121 0 00-.0909-.02119 6.0286635 9.6123121 0 00-.0915-.01912 6.0286635 9.6123121 0 00-.0915-.01654 6.0286635 9.6123121 0 00-.0915-.01447 6.0286635 9.6123121 0 00-.092-.0124 6.0286635 9.6123121 0 00-.0915-.01033 6.0286635 9.6123121 0 00-.092-.0078 6.0286635 9.6123121 0 00-.092-.0057 6.0286635 9.6123121 0 00-.092-.0031 6.0286635 9.6123121 0 00-.0925-.0016 6.0286635 9.6123121 0 00-.0796.001 6.0286635 9.6123121 0 00-.092.0031 6.0286635 9.6123121 0 00-.092.0052 6.0286635 9.6123121 0 00-.092.0078 6.0286635 9.6123121 0 00-.0915.0098 6.0286635 9.6123121 0 00-.092.01188 6.0286635 9.6123121 0 00-.0915.01447 6.0286635 9.6123121 0 00-.0915.01602 6.0286635 9.6123121 0 00-.0915.01912 6.0286635 9.6123121 0 00-.0909.02067 6.0286635 9.6123121 0 00-.091.02325 6.0286635 9.6123121 0 00-.091.02532 6.0286635 9.6123121 0 00-.0904.02739 6.0286635 9.6123121 0 00-.0899.02997 6.0286635 9.6123121 0 00-.0899.03204 6.0286635 9.6123121 0 00-.0894.03411 6.0286635 9.6123121 0 00-.0894.03617 6.0286635 9.6123121 0 00-.0889.03824 6.0286635 9.6123121 0 00-.0884.04082 6.0286635 9.6123121 0 00-.0879.04289 6.0286635 9.6123121 0 00-.0879.04496 6.0286635 9.6123121 0 00-.0873.04703 6.0286635 9.6123121 0 00-.08682.04909 6.0286635 9.6123121 0 00-.0863.05116 6.0286635 9.6123121 0 00-.08578.05323 6.0286635 9.6123121 0 00-.08475.05581 6.0286635 9.6123121 0 00-.08475.05736 6.0286635 9.6123121 0 00-.08423.05943 6.0286635 9.6123121 0 00-.08371.0615 6.0286635 9.6123121 0 00-.08268.06408 6.0286635 9.6123121 0 00-.08268.06563 6.0286635 9.6123121 0 00-.08165.06718 6.0286635 9.6123121 0 00-.08113.06976 6.0286635 9.6123121 0 00-.0801.07183 6.0286635 9.6123121 0 00-.07958.07338 6.0286635 9.6123121 0 00-.07906.07545 6.0286635 9.6123121 0 00-.07855.07751 6.0286635 9.6123121 0 00-.077.07906 6.0286635 9.6123121 0 00-.077.08113 6.0286635 9.6123121 0 00-.07596.0832 6.0286635 9.6123121 0 00-.07493.08475 6.0286635 9.6123121 0 00-.07441.08682 6.0286635 9.6123121 0 00-.07338.08837 6.0286635 9.6123121 0 00-.07286.09043 6.0286635 9.6123121 0 00-.07131.09198 6.0286635 9.6123121 0 00-.0708.09353 6.0286635 9.6123121 0 00-.07028.0956 6.0286635 9.6123121 0 00-.06873.09715 6.0286635 9.6123121 0 00-.06821.0987 6.0286635 9.6123121 0 00-.06718.100769 6.0286635 9.6123121 0 00-.06615.101803 6.0286635 9.6123121 0 00-.06511.103869 6.0286635 9.6123121 0 00-.06408.104903 6.0286635 9.6123121 0 00-.06305.106971 6.0286635 9.6123121 0 00-.06253.10852 6.0286635 9.6123121 0 00-.06098.109554 6.0286635 9.6123121 0 00-.05994.111621 6.0286635 9.6123121 0 00-.05891.112655 6.0286635 9.6123121 0 00-.05788.114205 6.0286635 9.6123121 0 00-.05684.115238 6.0286635 9.6123121 0 00-.05529.117306 6.0286635 9.6123121 0 00-.05478.118339 6.0286635 9.6123121 0 00-.05323.119372 6.0286635 9.6123121 0 00-.05219.120923 6.0286635 9.6123121 0 00-.05116.121957 6.0286635 9.6123121 0 00-.05013.123506 6.0286635 9.6123121 0 00-.04858.12454 6.0286635 9.6123121 0 00-.04754.125574 6.0286635 9.6123121 0 00-.04599.127124 6.0286635 9.6123121 0 00-.04548.128158 6.0286635 9.6123121 0 00-.04341.128674 6.0286635 9.6123121 0 00-.04289.130225 6.0286635 9.6123121 0 00-.04134.131258 6.0286635 9.6123121 0 00-.03979.132291 6.0286635 9.6123121 0 00-.03876.132809 6.0286635 9.6123121 0 00-.03772.134359 6.0286635 9.6123121 0 00-.03617.134875 6.0286635 9.6123121 0 00-.03514.135909 6.0286635 9.6123121 0 00-.03359.136426 6.0286635 9.6123121 0 00-.03256.137459 6.0286635 9.6123121 0 00-.03101.137976 6.0286635 9.6123121 0 00-.02945.13901 6.0286635 9.6123121 0 00-.02842.139526 6.0286635 9.6123121 0 00-.02687.14056 6.0286635 9.6123121 0 00-.02584.141077 6.0286635 9.6123121 0 00-.02429.141593 6.0286635 9.6123121 0 00-.02274.14211 6.0286635 9.6123121 0 00-.0217.142627 6.0286635 9.6123121 0 00-.02015.143144 6.0286635 9.6123121 0 00-.01912.143661 6.0286635 9.6123121 0 00-.01705.144177 6.0286635 9.6123121 0 00-.01602.144694 6.0286635 9.6123121 0 00-.01499.144694 6.0286635 9.6123121 0 00-.01344.145211 6.0286635 9.6123121 0 00-.01189.145727 6.0286635 9.6123121 0 00-.01033.145728 6.0286635 9.6123121 0 00-.0093.146244 6.0286635 9.6123121 0 00-.0078.146244 6.0286635 9.6123121 0 00-.0062.146245 6.0286635 9.6123121 0 00-.0047.146761 6.0286635 9.6123121 0 00-.0036.146244 6.0286635 9.6123121 0 00-.0021.146761 6.0286635 9.6123121 0 00-.001.146761 6.0286635 9.6123121 0 00.000517.127124 6.0286635 9.6123121 0 00.0021.146761 6.0286635 9.6123121 0 00.0031.146761 6.0286635 9.6123121 0 00.0052.146761 6.0286635 9.6123121 0 00.0057.146245 6.0286635 9.6123121 0 00.0078.146244 6.0286635 9.6123121 0 00.0088.146244 6.0286635 9.6123121 0 00.01034.145728 6.0286635 9.6123121 0 00.01189.145727 6.0286635 9.6123121 0 00.01292.145211 6.0286635 9.6123121 0 00.01499.144694 6.0286635 9.6123121 0 00.0155.144694 6.0286635 9.6123121 0 00.01757.144177 6.0286635 9.6123121 0 00.0186.143661 6.0286635 9.6123121 0 00.02015.14366 6.0286635 9.6123121 0 00.02119.142627 6.0286635 9.6123121 0 00.02274.14211 6.0286635 9.6123121 0 00.02429.141594 6.0286635 9.6123121 0 00.02532.141076 6.0286635 9.6123121 0 00.02687.14056 6.0286635 9.6123121 0 00.02791.139527 6.0286635 9.6123121 0 00.02997.139009 6.0286635 9.6123121 0 00.03049.138493 6.0286635 9.6123121 0 00.03204.137459 6.0286635 9.6123121 0 00.01292.05219 13.195829 13.195829 0 005.619813 1.256771 13.195829 13.195829 0 005.62033-1.256771z"
        paint-order="stroke fill markers" style="font-variation-settings:normal" />
    </g>
  </g>
</svg>