<svg viewBox="0 0 1920 1080" fill="none" xmlns="http://www.w3.org/2000/svg">
  <g id="perfil">
    <path d="M1920 847H0V1080H1920V847Z" fill="#000955" />
    <path d="M1920 0H0V847H1920V0Z" fill="#0012A6" />
    <g>
      <path id="Vector"
        d="M960.001 542C1024.34 542 1076.5 489.841 1076.5 425.5C1076.5 361.158 1024.34 308.999 960.001 308.999C895.659 308.999 843.5 361.158 843.5 425.5C843.5 489.841 895.659 542 960.001 542Z"
        fill="#BFC9FF" />
      <path id="Vector_2" fill-rule="evenodd" clip-rule="evenodd"
        d="M960.001 542C910.007 542 862.062 574.134 826.711 631.332C791.36 688.531 771.5 766.109 771.5 847H1148.5C1148.5 806.947 1143.63 767.286 1134.15 730.282C1124.68 693.277 1110.79 659.654 1093.29 631.332C1075.79 603.01 1055.01 580.544 1032.14 565.217C1009.27 549.889 984.755 542 960.001 542V542Z"
        fill="#BFC9FF" />
    </g>
    <path class="perfil-psicologia__svg"
      d="M408.098 69.23C408.038 69.301 408 70.167 408 71.165V72.971L408.983 73.07C410.634 73.228 411.553 73.429 412.717 73.863C415.929 75.077 417.974 77.635 418.934 81.634L419.274 83.029L419.35 94.764C419.437 105.724 419.463 106.639 419.717 108.688C421.315 121.561 425.945 131.248 433.977 138.528C442.681 146.415 455.293 151.117 469.451 151.744L471.681 151.846L471.67 164.232C471.659 172.18 471.625 180.129 471.572 188.073L471.481 199.525L471.091 200.848C470.131 204.06 468.295 206.324 465.366 207.9C463.943 208.651 462.417 209.188 460.838 209.495C458.847 209.831 456.827 209.97 454.809 209.907L453.513 209.805L453.551 211.487L453.589 213.165L454.911 213.135C471.64 212.78 488.375 212.78 505.104 213.135L506.426 213.165L506.464 211.487L506.502 209.805L505.206 209.907C503.175 209.971 501.142 209.828 499.14 209.48C497.477 209.14 495.965 208.611 494.65 207.904C491.724 206.324 489.933 204.132 488.935 200.874L488.519 199.521L488.443 187.574C488.394 181.005 488.357 170.279 488.345 163.737L488.33 151.843L490.579 151.744C503.139 151.189 514.586 147.398 523.075 140.991C526.303 138.546 529.769 134.99 531.957 131.883C536.515 125.39 539.116 118.148 540.314 108.631C540.552 106.654 540.578 105.645 540.665 94.761L540.741 83.029L541.081 81.63C542.128 77.269 544.475 74.623 548.296 73.512C548.927 73.322 551.221 73.002 551.841 73.002C551.992 73.002 552.015 72.672 551.992 71.112L551.955 69.233L549.808 69.245C542.068 69.271 535.053 72.333 530.268 77.749C527.512 80.863 525.71 84.306 524.334 89.004C523.276 92.614 522.811 96.072 522.634 101.461C522.569 103.465 522.418 106.027 522.316 107.153C521.359 116.953 518.699 125.329 514.522 131.607C513.155 133.563 511.606 135.385 509.896 137.049C506.041 140.564 501.218 142.799 495.708 143.622C494.022 143.879 489.517 144.076 488.798 143.921L488.33 143.822V118.9C488.345 92.02 488.425 86.94 488.821 84.922C489.728 80.425 492.28 77.227 496.123 75.761C498.778 74.7679 501.627 74.403 504.446 74.695C505.466 74.778 506.426 74.891 506.593 74.933C506.869 75.016 506.869 75.016 506.869 73.156V71.293H453.146V73.157C453.146 75.017 453.146 75.017 453.437 74.933C453.589 74.891 454.545 74.782 455.569 74.695C458.388 74.403 461.237 74.7679 463.892 75.761C467.546 77.151 470.128 80.239 471.042 84.265C471.609 86.736 471.594 86.155 471.647 115.635L471.712 143.822L471.232 143.921C470.498 144.079 466.008 143.879 464.307 143.618C458.797 142.798 453.978 140.564 450.119 137.053C448.409 135.386 446.86 133.561 445.493 131.603C442.93 127.763 440.889 122.986 439.54 117.721C438.217 112.569 437.598 107.875 437.386 101.461C437.204 95.97 436.74 92.629 435.617 88.785C432.491 78.051 425.163 71.376 414.52 69.574C412.781 69.275 408.265 69.044 408.098 69.234V69.23Z"
      fill="#EBB204" />
    <g class="perfil-quimica__svg">
      <g id="Vector_3">
        <path d="M445.236 351.496H391.918H445.236ZM403.812 404.814V351.5V404.814ZM431.958 404.814V351.5Z"
          fill="#EBB204" />
        <path d="M431.958 404.814V351.5M445.236 351.496H391.918H445.236ZM403.812 404.814V351.5V404.814Z"
          stroke="#EBB204" stroke-width="6.18" stroke-linecap="round" stroke-linejoin="round" />
      </g>
      <path id="Vector_4"
        d="M431.958 404.814H403.812C403.812 404.814 360.008 450.758 360.68 479.497C361.047 495.36 412.74 495.5 417.883 495.5C422.767 495.5 475.087 495.526 475.09 479.55C475.102 450.788 431.958 404.814 431.958 404.814Z"
        fill="#EBB204" stroke="#EBB204" stroke-width="3.432" stroke-linecap="round" stroke-linejoin="round" />
    </g>
    <g class="perfil-ingles__svg">
      <path id="Vector_5" fill-rule="evenodd" clip-rule="evenodd"
        d="M479.35 633.827C448.564 633.933 419.098 641.566 397.39 655.058C375.682 668.55 363.498 686.803 363.5 705.83C363.499 715.286 366.512 724.649 372.366 733.384C378.22 742.12 386.802 750.058 397.62 756.744C408.438 763.43 421.281 768.734 435.416 772.353C449.551 775.972 464.7 777.834 480 777.834C510.898 777.834 540.53 770.248 562.378 756.746C584.226 743.243 596.5 724.93 596.5 705.834C596.501 696.378 593.489 687.015 587.635 678.279C581.781 669.542 573.2 661.604 562.382 654.918C551.564 648.231 538.72 642.927 524.585 639.308C510.45 635.69 495.3 633.827 480 633.827C479.783 633.827 479.567 633.827 479.35 633.827V633.827ZM479.475 684.926H480.911C481.75 684.926 482.483 685.24 483.107 685.863C483.405 686.146 483.642 686.487 483.803 686.866C483.965 687.244 484.046 687.652 484.044 688.063V723.053C484.046 723.464 483.964 723.871 483.803 724.248C483.642 724.626 483.405 724.967 483.107 725.25C482.824 725.548 482.482 725.785 482.104 725.946C481.726 726.108 481.318 726.189 480.907 726.187H479.475C479.064 726.189 478.656 726.108 478.278 725.946C477.9 725.785 477.558 725.548 477.275 725.25C476.978 724.967 476.742 724.626 476.581 724.249C476.42 723.871 476.339 723.464 476.341 723.054V688.063C476.341 687.216 476.651 686.487 477.275 685.863C477.558 685.565 477.9 685.328 478.278 685.167C478.656 685.005 479.064 684.924 479.475 684.926V684.926ZM496.974 684.926H498.403C499.245 684.926 499.979 685.24 500.603 685.863C500.901 686.146 501.138 686.487 501.299 686.866C501.461 687.244 501.542 687.652 501.54 688.063V723.053C501.542 723.464 501.46 723.871 501.298 724.249C501.137 724.626 500.9 724.967 500.602 725.25C500.319 725.548 499.977 725.785 499.599 725.946C499.221 726.108 498.813 726.189 498.402 726.187H496.97C496.559 726.189 496.151 726.108 495.773 725.946C495.395 725.785 495.053 725.548 494.77 725.25C494.473 724.967 494.237 724.626 494.077 724.248C493.916 723.871 493.835 723.464 493.837 723.054V688.063C493.837 687.216 494.147 686.487 494.77 685.863C495.053 685.565 495.395 685.328 495.773 685.167C496.151 685.005 496.559 684.924 496.97 684.926H496.974ZM409.554 686.026H411.039C411.885 686.026 412.615 686.34 413.239 686.963C413.537 687.246 413.774 687.588 413.935 687.966C414.097 688.344 414.178 688.752 414.176 689.163V701.65C414.176 701.945 414.319 702.089 414.614 702.089H428.372C428.662 702.089 428.81 701.945 428.81 701.65V689.163C428.81 688.316 429.124 687.587 429.747 686.963C430.03 686.665 430.372 686.428 430.75 686.267C431.128 686.105 431.536 686.024 431.947 686.026H433.432C433.835 686.021 434.235 686.102 434.605 686.263C434.974 686.425 435.305 686.663 435.575 686.963C435.873 687.246 436.111 687.587 436.272 687.966C436.433 688.344 436.515 688.752 436.513 689.163V723.053C436.515 723.464 436.433 723.871 436.271 724.249C436.11 724.626 435.873 724.967 435.575 725.25C435.305 725.55 434.974 725.788 434.605 725.95C434.235 726.111 433.835 726.192 433.432 726.187H431.947C431.536 726.189 431.128 726.108 430.75 725.946C430.372 725.785 430.03 725.548 429.747 725.25C429.449 724.967 429.213 724.627 429.051 724.249C428.89 723.871 428.808 723.465 428.81 723.054V708.469C428.81 708.139 428.659 707.977 428.368 707.977H414.614C414.319 707.977 414.176 708.14 414.176 708.469V723.054C414.178 723.465 414.095 723.871 413.934 724.249C413.773 724.627 413.536 724.967 413.238 725.25C412.955 725.548 412.613 725.785 412.235 725.946C411.857 726.108 411.449 726.189 411.038 726.187H409.553C409.144 726.184 408.74 726.101 408.364 725.942C407.988 725.782 407.647 725.55 407.361 725.259C407.075 724.967 406.849 724.622 406.696 724.243C406.544 723.864 406.468 723.458 406.473 723.05V689.163C406.468 688.754 406.544 688.349 406.696 687.97C406.849 687.591 407.075 687.246 407.361 686.954C407.647 686.663 407.988 686.43 408.364 686.271C408.74 686.112 409.144 686.029 409.553 686.026H409.554ZM547.582 686.026H550.552C550.956 686.02 551.357 686.101 551.727 686.262C552.097 686.424 552.429 686.663 552.699 686.963C552.982 687.252 553.201 687.597 553.343 687.976C553.485 688.355 553.546 688.759 553.523 689.163L552.699 710.948C552.694 711.368 552.606 711.782 552.44 712.168C552.274 712.553 552.033 712.902 551.731 713.194C551.429 713.486 551.072 713.715 550.681 713.868C550.29 714.02 549.873 714.094 549.453 714.085H548.682C547.844 714.101 547.034 713.785 546.429 713.205C545.818 712.61 545.463 711.8 545.439 710.948L544.611 689.163C544.588 688.759 544.65 688.354 544.793 687.975C544.935 687.597 545.155 687.252 545.439 686.963C545.709 686.663 546.04 686.425 546.409 686.263C546.779 686.102 547.179 686.021 547.582 686.026V686.026ZM456.208 697.032C458.241 697.032 460.029 697.319 461.571 697.897C463.109 698.476 464.406 699.337 465.449 700.494C466.492 701.65 467.289 703.094 467.841 704.825C468.389 706.56 468.695 708.582 468.748 710.891C468.775 711.306 468.705 711.721 468.543 712.104C468.381 712.486 468.132 712.826 467.815 713.095C467.184 713.67 466.358 713.983 465.505 713.972H450.482C450.153 713.972 450.025 714.138 450.096 714.471C450.225 715.699 450.493 716.761 450.898 717.661C451.302 718.56 451.843 719.293 452.519 719.861C453.214 720.412 454.069 720.824 455.078 721.1C456.087 721.376 457.251 721.508 458.57 721.508C460.433 721.478 462.283 721.201 464.073 720.684C464.38 720.59 464.704 720.571 465.02 720.628C465.336 720.685 465.633 720.817 465.887 721.013C466.163 721.189 466.39 721.434 466.544 721.723C466.698 722.013 466.775 722.337 466.767 722.665C466.776 723.483 466.504 724.279 465.997 724.921C465.528 725.541 464.837 725.955 464.069 726.077C461.973 726.521 459.836 726.741 457.693 726.735C455.289 726.735 453.158 726.425 451.306 725.802C449.541 725.228 447.926 724.269 446.578 722.993C445.265 721.68 444.276 720.08 443.69 718.318C443.048 716.466 442.73 714.323 442.73 711.885C442.73 709.466 443.017 707.331 443.596 705.487C444.17 703.646 445.036 702.093 446.192 700.827C447.349 699.56 448.762 698.612 450.429 697.977C452.099 697.346 454.023 697.032 456.208 697.032V697.032ZM522.773 697.032C524.973 697.032 526.927 697.357 528.631 698.007C530.336 698.657 531.795 699.632 533.004 700.937C534.232 702.221 535.158 703.771 535.771 705.597C536.383 707.422 536.693 709.519 536.693 711.885C536.693 714.248 536.383 716.345 535.771 718.182C535.155 720.015 534.232 721.584 533.004 722.884C531.79 724.172 530.293 725.161 528.631 725.771C526.927 726.414 524.973 726.735 522.773 726.735C520.569 726.735 518.615 726.414 516.9 725.771C515.228 725.157 513.718 724.17 512.485 722.884C511.247 721.533 510.318 719.929 509.764 718.182C509.159 716.349 508.857 714.252 508.857 711.885C508.857 709.519 509.159 707.425 509.764 705.596C510.368 703.774 511.276 702.221 512.485 700.936C513.713 699.634 515.223 698.632 516.9 698.006C518.615 697.356 520.57 697.032 522.773 697.032ZM548.133 718.484H550.004C550.408 718.478 550.809 718.559 551.179 718.721C551.549 718.883 551.881 719.122 552.151 719.422C552.449 719.705 552.685 720.047 552.846 720.425C553.006 720.804 553.088 721.211 553.085 721.622V723.054C553.087 723.464 553.006 723.871 552.845 724.249C552.684 724.626 552.448 724.967 552.151 725.25C551.881 725.55 551.549 725.789 551.179 725.951C550.809 726.112 550.408 726.193 550.004 726.187H548.134C547.726 726.183 547.322 726.099 546.946 725.94C546.571 725.78 546.23 725.548 545.944 725.257C545.658 724.965 545.432 724.621 545.279 724.242C545.127 723.863 545.05 723.458 545.054 723.05V721.621C545.05 721.213 545.127 720.808 545.279 720.429C545.432 720.05 545.658 719.705 545.944 719.414C546.23 719.123 546.571 718.891 546.946 718.731C547.322 718.571 547.726 718.488 548.134 718.484H548.133ZM456.313 702.146C455.38 702.146 454.553 702.278 453.827 702.546C453.123 702.796 452.487 703.204 451.967 703.74C451.429 704.324 451.017 705.013 450.757 705.763C450.447 706.594 450.229 707.592 450.097 708.748C450.097 709.039 450.247 709.187 450.542 709.187H461.322C461.616 709.187 461.764 709.036 461.764 708.745C461.745 707.77 461.603 706.8 461.34 705.861C461.132 705.109 460.775 704.407 460.29 703.797C459.843 703.251 459.267 702.825 458.615 702.557C457.884 702.27 457.103 702.13 456.317 702.146H456.313ZM522.773 702.365C521.688 702.365 520.74 702.557 519.923 702.943C519.102 703.332 518.396 703.929 517.875 704.674C517.345 705.43 516.945 706.405 516.68 707.604C516.416 708.805 516.28 710.234 516.28 711.885C516.28 713.533 516.412 714.965 516.68 716.175C516.945 717.385 517.346 718.375 517.875 719.145C518.4 719.876 519.105 720.459 519.923 720.835C520.74 721.213 521.688 721.402 522.773 721.402C523.853 721.402 524.799 721.213 525.608 720.835C526.413 720.459 527.105 719.876 527.611 719.145C528.216 718.247 528.638 717.237 528.851 716.175C529.126 714.965 529.266 713.533 529.266 711.885C529.266 710.234 529.126 708.805 528.85 707.603C528.64 706.553 528.22 705.557 527.614 704.674C527.111 703.929 526.419 703.331 525.608 702.943C524.718 702.54 523.749 702.343 522.773 702.365V702.365Z"
        fill="#EBB204" />
      <path id="Vector_6" fill-rule="evenodd" clip-rule="evenodd"
        d="M377.737 724.694L416.64 763.597L363.5 777.834L377.737 724.694Z" fill="#EBB204" />
    </g>
    <g class="perfil-biologia__svg">
      <path id="Vector_7"
        d="M1465.41 69.165C1465.41 69.165 1451.42 78.157 1449.14 85.436C1440.9 111.719 1483.87 146.079 1464.3 165.683C1444.8 185.227 1410.51 142.492 1384.27 150.735C1376.99 153.022 1368 167.006 1368 167.006"
        stroke="#EBB204" stroke-width="9.589" stroke-linecap="round" stroke-linejoin="round" />
      <path id="Vector_8"
        d="M1452.62 170.271L1410.83 128.481M1512 115.76C1512 115.76 1503 129.744 1495.73 132.03C1469.45 140.273 1435.09 97.304 1415.49 116.87C1395.94 136.373 1438.67 170.653 1430.43 196.894C1428.14 204.17 1414.16 213.165 1414.16 213.165L1512 115.76ZM1469.19 154.303L1426.83 111.938L1469.19 154.303Z"
        stroke="#EBB204" stroke-width="9.589" stroke-linecap="round" stroke-linejoin="round" />
      <path id="Vector_9" d="M1449.36 86.3309L1494.83 131.804" stroke="#EBB204" stroke-width="9.58663"
        stroke-linecap="round" stroke-linejoin="round" />
      <path id="Vector_10" d="M1384.82 151.289L1429.7 196.162" stroke="#EBB204" stroke-width="9.58581"
        stroke-linecap="round" stroke-linejoin="round" />
    </g>
    <g class="perfil-fisica__svg">
      <path id="Vector_11" fill-rule="evenodd" clip-rule="evenodd"
        d="M1528.97 445.865C1502.11 404.72 1502.11 404.72 1475.26 445.865C1448.4 487.01 1448.4 487.01 1502.11 487.01C1555.82 487.01 1555.82 487.01 1528.97 445.865Z"
        fill="#EBB204" />
      <path id="Vector_12"
        d="M1413.12 415.006C1428.31 415.006 1440.62 402.691 1440.62 387.499C1440.62 372.307 1428.31 359.992 1413.12 359.992C1397.93 359.992 1385.61 372.307 1385.61 387.499C1385.61 402.691 1397.93 415.006 1413.12 415.006Z"
        fill="#EBB204" />
      <g id="Vector_13">
        <path d="M1385.61 415.007H1618.61Z" fill="#EBB204" />
        <path d="M1385.61 415.007H1618.61" stroke="#EBB204" stroke-width="8.091" stroke-linecap="round"
          stroke-linejoin="round" />
      </g>
      <path id="Vector_14"
        d="M1591.1 415.006C1606.29 415.006 1618.61 402.691 1618.61 387.499C1618.61 372.307 1606.29 359.992 1591.1 359.992C1575.91 359.992 1563.59 372.307 1563.59 387.499C1563.59 402.691 1575.91 415.006 1591.1 415.006Z"
        fill="#EBB204" />
    </g>
    <g class="perfil-fisiologia__svg">
      <path id="Vector_15"
        d="M1388.35 764.795L1442.09 711.056C1444.63 708.517 1444.63 704.401 1442.09 701.862C1439.55 699.323 1435.44 699.323 1432.9 701.862L1379.16 755.601C1376.62 758.14 1376.62 762.256 1379.16 764.795C1381.7 767.333 1385.82 767.333 1388.35 764.795Z"
        stroke="#EBB204" stroke-width="5" />
      <path id="Vector_16"
        d="M1491.65 764.795L1437.91 711.056C1435.37 708.517 1435.37 704.401 1437.91 701.862C1440.45 699.323 1444.57 699.323 1447.11 701.862L1500.85 755.601C1503.39 758.14 1503.39 762.256 1500.85 764.795C1498.31 767.334 1494.19 767.333 1491.65 764.795Z"
        stroke="#EBB204" stroke-width="5" />
      <path id="Vector_17"
        d="M1482.1 639.344L1452.41 669.041C1449.87 671.58 1449.87 675.696 1452.41 678.235C1454.95 680.774 1459.06 680.774 1461.6 678.235L1491.3 648.538C1493.84 645.999 1493.84 641.883 1491.3 639.344C1488.76 636.805 1484.64 636.805 1482.1 639.344Z"
        stroke="#EBB204" stroke-width="5" />
      <path id="Vector_18"
        d="M1397.9 639.341L1427.6 669.038C1430.14 671.577 1430.14 675.693 1427.6 678.232C1425.06 680.771 1420.94 680.771 1418.4 678.232L1388.71 648.535C1386.17 645.996 1386.17 641.88 1388.71 639.341C1391.24 636.802 1395.36 636.802 1397.9 639.341Z"
        stroke="#EBB204" stroke-width="5" />
      <path id="Vector_19"
        d="M1440 667.829C1449.39 667.829 1457 660.218 1457 650.829C1457 641.44 1449.39 633.829 1440 633.829C1430.61 633.829 1423 641.44 1423 650.829C1423 660.218 1430.61 667.829 1440 667.829Z"
        fill="#EBB204" />
      <path id="Vector_20"
        d="M1505.5 669.832H1374.5C1370.91 669.832 1368 672.743 1368 676.333C1368 679.923 1370.91 682.834 1374.5 682.834H1505.5C1509.09 682.834 1512 679.923 1512 676.333C1512 672.743 1509.09 669.832 1505.5 669.832Z"
        fill="#EBB204" />
      <path id="Vector_21"
        d="M1436 771.331V695.333C1436 691.743 1433.09 688.832 1429.5 688.832C1425.91 688.832 1423 691.743 1423 695.333V771.331C1423 774.921 1425.91 777.832 1429.5 777.832C1433.09 777.832 1436 774.921 1436 771.331Z"
        fill="#EBB204" />
      <path id="Vector_22" d="M1457 724.832V669.832H1423V724.832H1457Z" fill="#EBB204" />
      <path id="Vector_23"
        d="M1457 771.331V695.333C1457 691.743 1454.09 688.832 1450.5 688.832C1446.91 688.832 1444 691.743 1444 695.333V771.331C1444 774.921 1446.91 777.832 1450.5 777.832C1454.09 777.832 1457 774.921 1457 771.331Z"
        fill="#EBB204" />
    </g>
  </g>
</svg>