<svg xmlns="http://www.w3.org/2000/svg" viewBox="0 0 26.392 26.392">
  <defs />
  <path fill="#250f80"
    d="M13.196 26.392c7.288 0 13.196-5.908 13.196-13.196C26.392 5.908 20.484 0 13.196 0 5.908 0 0 5.908 0 13.196c0 7.288 5.908 13.196 13.196 13.196z"
    class="circulo" />
  <path class="psicologia__svg" fill="#f2b924"
    d="M5.051 5.972a.901.901 0 00-.01.194v.182l.11.01c.188.015.292.035.424.08.363.121.595.378.704.78l.038.14.01 1.178c.01 1.101.012 1.193.04 1.398.182 1.293.706 2.266 1.616 2.997.986.792 2.415 1.264 4.018 1.327l.253.01-.001 1.245a421.585 421.585 0 01-.011 2.394l-.01 1.15-.045.132c-.108.323-.316.55-.648.709a2.016 2.016 0 01-.513.16 3.892 3.892 0 01-.683.041l-.147-.01.004.169.004.168.15-.003a150.862 150.862 0 015.685 0l.15.003.004-.168.004-.169-.147.01a3.826 3.826 0 01-.687-.043 2.019 2.019 0 01-.508-.158c-.332-.159-.535-.379-.648-.706l-.047-.136-.009-1.2c-.006-.66-.01-1.736-.01-2.394l-.003-1.194.254-.01c1.423-.055 2.72-.436 3.682-1.08a4.823 4.823 0 001.005-.914c.517-.652.812-1.38.947-2.335.027-.199.03-.3.04-1.393l.01-1.179.038-.14c.118-.438.384-.704.817-.815.071-.019.331-.051.402-.051.017 0 .02-.033.017-.19l-.004-.189-.243.001c-.877.003-1.672.31-2.214.854-.312.313-.516.659-.672 1.13-.12.363-.172.71-.193 1.252-.007.2-.024.458-.036.571-.108.984-.41 1.826-.882 2.456a3.964 3.964 0 01-.524.547c-.437.353-.983.577-1.608.66-.19.025-.7.045-.782.03l-.053-.01V10.96c.002-2.7.01-3.21.055-3.412.103-.452.392-.773.828-.92a2.328 2.328 0 01.942-.107c.116.008.225.02.243.024.032.008.032.008.032-.179v-.187h-6.086v.187c0 .187 0 .187.033.179.018-.005.126-.016.242-.024a2.328 2.328 0 01.943.107c.414.14.706.45.81.854.064.248.062.19.068 3.15l.007 2.83-.054.01c-.083.016-.592-.004-.785-.03-.624-.082-1.17-.306-1.607-.66a3.964 3.964 0 01-.524-.546 4.33 4.33 0 01-.674-1.395c-.15-.517-.22-.988-.244-1.632-.02-.552-.073-.887-.2-1.273-.355-1.079-1.185-1.749-2.39-1.93-.197-.03-.709-.053-.728-.034z" />
</svg>