<svg xmlns="http://www.w3.org/2000/svg" viewBox="0 0 26.392 26.392">
  <defs />
  <path fill="#250f80"
    d="M13.196 26.392c7.288 0 13.196-5.908 13.196-13.196C26.392 5.908 20.484 0 13.196 0 5.908 0 0 5.908 0 13.196c0 7.288 5.908 13.196 13.196 13.196z"
    class="circulo" />
  <path class="diente__svg" fill="#f2b924"
    d="M12.134 21.351c-2.073 0-3.437-4.553-4.147-7.515-.634-2.64-1.92-6.225 0-8.144 1.466-1.466 3.472 0 5.209 0 1.736 0 3.743-1.466 5.209 0 1.92 1.92.633 5.505 0 8.144-.711 2.962-2.073 7.515-4.148 7.515-2.073 0 1.469-7.515-1.061-7.515-2.53 0 1.012 7.515-1.062 7.515z" />
</svg>