<svg xmlns="http://www.w3.org/2000/svg" fill="none" viewBox="0 0 100 100">
  <g id="pesa 1" clip-path="url(#clip0)">
    <path class="circulo" fill="#250F80"
      d="M49.874 99.747c27.545 0 49.874-22.33 49.874-49.874 0-27.545-22.33-49.874-49.874-49.874C22.329-.001 0 22.329 0 49.873c0 27.545 22.33 49.874 49.874 49.874z" />
    <g id="Pesa">
      <path id="Vector" fill="#EBB204"
        d="M65.522 71.78c1.599 1.6 4.26 1.53 5.943-.153 1.683-1.683 1.752-4.344.153-5.943l-33.91-33.91c-1.6-1.6-4.26-1.53-5.944.153-1.683 1.683-1.752 4.344-.153 5.943l33.911 33.91z" />
      <g id="Group 1" fill="#000955">
        <path id="Vector_2"
          d="M51.26 77.26l.512.511c2.447 2.448 6.52 2.342 9.097-.235l16.505-16.505c2.577-2.577 2.682-6.65.235-9.096l-.512-.512c-2.447-2.447-6.52-2.343-9.097.234L51.495 68.163c-2.577 2.576-2.682 6.65-.235 9.097z" />
        <path id="Vector_3"
          d="M63.325 79.454l.313.313c1.513 1.513 4.03 1.448 5.622-.145l10.2-10.2c1.592-1.592 1.657-4.109.145-5.621l-.314-.314c-1.512-1.512-4.028-1.447-5.621.146l-10.2 10.2c-1.592 1.592-1.657 4.109-.145 5.62v.001z" />
      </g>
      <g id="Group" fill="#000955">
        <path id="Vector_4"
          d="M22.651 48.324l-.512-.512c-2.447-2.447-2.342-6.52.235-9.097L38.879 22.21c2.577-2.577 6.65-2.682 9.097-.235l.511.512c2.448 2.447 2.342 6.52-.234 9.097L31.747 48.089c-2.576 2.576-6.649 2.682-9.096.235z" />
        <path id="Vector_5"
          d="M20.456 36.259l-.313-.313c-1.512-1.513-1.447-4.03.145-5.622l10.2-10.2c1.592-1.592 4.11-1.657 5.622-.145l.313.313c1.512 1.513 1.447 4.03-.145 5.622l-10.2 10.2c-1.593 1.592-4.11 1.657-5.622.145z" />
      </g>
    </g>
  </g>
  <defs>
    <clipPath id="clip0">
      <path fill="#fff" d="M0 0h99.748v99.748H0z" />
    </clipPath>
  </defs>
</svg>