<svg xmlns="http://www.w3.org/2000/svg" viewBox="0 0 26.392 26.392">
  <defs />
  <path fill="#250f80"
    d="M13.196 26.392c7.288 0 13.196-5.908 13.196-13.196C26.392 5.908 20.484 0 13.196 0 5.908 0 0 5.908 0 13.196c0 7.288 5.908 13.196 13.196 13.196z"
    class="circulo" />
  <path class="pulmones__svg" fill="#f2b924"
    d="M9.623 7.22c-1.568.676-2.93 2.125-3.573 3.744-.918 2.311-1.716 5.725 0 7.49 1.263 1.3 4.096 1.3 5.36 0 1.715-1.765 0-4.993 0-7.49 0-1.248.857-2.862 0-3.745-.422-.433-1.238-.237-1.787 0zm7.146 0c1.568.676 2.93 2.125 3.573 3.744.918 2.311 1.716 5.725 0 7.49-1.263 1.3-4.096 1.3-5.36 0-1.715-1.765 0-4.993 0-7.49 0-1.248-.857-2.862 0-3.745.421-.433 1.238-.237 1.787 0z" />
  <path fill="none" stroke="#f2b924" stroke-linecap="round" stroke-linejoin="round" stroke-width="1.5"
    d="M15.232 13.196l-2.04-2.078V6.963m-2.04 6.233l2.04-2.078V6.963" />
</svg>